<svg xmlns="http://www.w3.org/2000/svg" width="115" height="24" fill="none"><path fill="#4D5AE5" d="M5.706 5.756H8.01l1.458 4.23 1.476-4.23h2.286l-2.196 5.814 1.62 4.068 3.618-9.918h2.7L13.86 18.5h-2.142l-2.25-5.364L7.236 18.5H5.094L0 5.72h2.664L6.3 15.638l1.584-4.068-2.178-5.814Zm23.99 10.566V18.5H20.82V5.72h8.712v2.178h-6.228v3.078h5.382v2.016h-5.382v3.33h6.39Zm12.772-1.116c0 .72-.186 1.326-.558 1.818-.372.48-.876.846-1.512 1.098a5.43 5.43 0 0 1-2.052.378h-6.174V5.72h6.84c.6 0 1.116.162 1.548.486.444.312.78.72 1.008 1.224a3.496 3.496 0 0 1-.108 3.294c-.312.552-.768.96-1.368 1.224.732.216 1.308.606 1.728 1.17.432.564.648 1.26.648 2.088Zm-2.502-.468c0-.324-.066-.612-.198-.864a1.494 1.494 0 0 0-.54-.612 1.257 1.257 0 0 0-.756-.234h-3.816v3.366h3.69c.3 0 .57-.072.81-.216.252-.156.45-.36.594-.612a1.64 1.64 0 0 0 .216-.828Zm-5.31-6.894v3.222h3.312c.276 0 .528-.066.756-.198.228-.132.408-.318.54-.558.144-.24.216-.528.216-.864 0-.324-.066-.606-.198-.846a1.339 1.339 0 0 0-.504-.558 1.264 1.264 0 0 0-.702-.198h-3.42Z"/><path fill="#F4F4FD" d="M52.946 9.068a2.956 2.956 0 0 0-.468-.342 4.595 4.595 0 0 0-.81-.414 7.341 7.341 0 0 0-1.026-.342 4.048 4.048 0 0 0-1.134-.162c-.672 0-1.182.126-1.53.378-.336.252-.504.606-.504 1.062 0 .348.108.624.324.828.216.204.54.378.972.522.432.144.972.3 1.62.468.84.204 1.566.456 2.178.756.624.288 1.098.672 1.422 1.152.336.468.504 1.092.504 1.872 0 .684-.126 1.272-.378 1.764-.252.48-.6.87-1.044 1.17-.444.3-.948.522-1.512.666a7.88 7.88 0 0 1-1.8.198 9.366 9.366 0 0 1-1.908-.198 10.486 10.486 0 0 1-1.836-.558 8.792 8.792 0 0 1-1.62-.9l1.098-2.142c.108.108.3.252.576.432.276.168.612.342 1.008.522.396.168.828.312 1.296.432.468.12.942.18 1.422.18.672 0 1.182-.114 1.53-.342.348-.228.522-.552.522-.972 0-.384-.138-.684-.414-.9-.276-.216-.66-.402-1.152-.558a36.605 36.605 0 0 0-1.746-.54c-.804-.228-1.476-.48-2.016-.756-.54-.288-.942-.648-1.206-1.08-.264-.432-.396-.972-.396-1.62 0-.876.204-1.608.612-2.196.42-.6.984-1.05 1.692-1.35.708-.312 1.494-.468 2.358-.468.6 0 1.164.066 1.692.198.54.132 1.044.306 1.512.522.468.216.888.45 1.26.702l-1.098 2.016Zm13.523-1.17h-4.086V18.5h-2.466V7.898h-4.086V5.72H66.47v2.178Zm7.545 10.692c-1.02 0-1.89-.168-2.61-.504a4.674 4.674 0 0 1-1.728-1.422 6.22 6.22 0 0 1-.954-2.034 9.286 9.286 0 0 1-.306-2.394V5.72H70.9v6.516c0 .528.048 1.044.144 1.548.108.492.282.936.522 1.332.24.396.558.708.954.936.396.228.888.342 1.476.342.6 0 1.098-.114 1.494-.342.408-.24.726-.558.954-.954.24-.396.414-.84.522-1.332a7.282 7.282 0 0 0 .162-1.53V5.72h2.466v6.516c0 .876-.108 1.698-.324 2.466a5.642 5.642 0 0 1-.99 2.034 4.664 4.664 0 0 1-1.728 1.368c-.708.324-1.554.486-2.538.486Zm8.622-.09V5.72h4.644c1.392 0 2.556.288 3.492.864a5.349 5.349 0 0 1 2.106 2.304c.468.96.702 2.028.702 3.204 0 1.296-.258 2.424-.774 3.384a5.464 5.464 0 0 1-2.196 2.232c-.936.528-2.046.792-3.33.792h-4.644Zm8.442-6.408c0-.828-.15-1.554-.45-2.178a3.383 3.383 0 0 0-1.296-1.476c-.564-.36-1.248-.54-2.052-.54h-2.16v8.424h2.16c.816 0 1.506-.18 2.07-.54.564-.372.99-.876 1.278-1.512.3-.648.45-1.374.45-2.178ZM96.06 18.5V5.72h2.484V18.5H96.06Zm11.145.09c-.936 0-1.788-.18-2.556-.54a6.209 6.209 0 0 1-1.962-1.458 7.136 7.136 0 0 1-1.26-2.088c-.3-.78-.45-1.578-.45-2.394 0-.852.156-1.662.468-2.43.324-.78.762-1.47 1.314-2.07a6.182 6.182 0 0 1 1.98-1.44 5.863 5.863 0 0 1 2.52-.54c.924 0 1.764.186 2.52.558a6.05 6.05 0 0 1 1.962 1.494c.54.624.96 1.32 1.26 2.088.3.768.45 1.56.45 2.376 0 .84-.156 1.65-.468 2.43a6.817 6.817 0 0 1-1.314 2.07 6.052 6.052 0 0 1-1.98 1.422 5.869 5.869 0 0 1-2.484.522Zm-3.708-6.48c0 .552.084 1.086.252 1.602.168.516.408.978.72 1.386.324.396.714.714 1.17.954a3.57 3.57 0 0 0 1.584.342c.6 0 1.134-.12 1.602-.36a3.602 3.602 0 0 0 1.17-.99c.312-.42.546-.882.702-1.386a4.975 4.975 0 0 0 .252-1.548c0-.552-.09-1.08-.27-1.584a4.181 4.181 0 0 0-.738-1.368 3.235 3.235 0 0 0-1.17-.954 3.273 3.273 0 0 0-1.548-.36c-.612 0-1.152.126-1.62.378-.456.24-.84.564-1.152.972a4.66 4.66 0 0 0-.72 1.368 5.206 5.206 0 0 0-.234 1.548Z"/></svg>