<!-- Generated by IcoMoon.io -->
<svg version="1.1" xmlns="http://www.w3.org/2000/svg" width="153" height="32" viewBox="0 0 153 32">
<path fill="#4d5ae5" d="M7.608 7.675h3.072l1.944 5.64 1.968-5.64h3.048l-2.928 7.752 2.16 5.424 4.824-13.224h3.6l-6.816 17.040h-2.856l-3-7.152-2.976 7.152h-2.856l-6.792-17.040h3.552l4.848 13.224 2.112-5.424-2.904-7.752zM39.595 21.763v2.904h-11.835v-17.040h11.616v2.904h-8.304v4.104h7.176v2.688h-7.176v4.44h8.52zM56.624 20.275c0 0.96-0.248 1.768-0.744 2.424-0.496 0.64-1.168 1.128-2.016 1.464-0.787 0.319-1.699 0.504-2.655 0.504-0.028 0-0.057-0-0.085-0l0.004 0h-8.232v-17.040h9.12c0.8 0 1.488 0.216 2.064 0.648 0.592 0.416 1.040 0.96 1.344 1.632 0.303 0.601 0.481 1.311 0.481 2.061 0 0.858-0.232 1.662-0.636 2.353l0.012-0.022c-0.416 0.736-1.024 1.28-1.824 1.632 0.976 0.288 1.744 0.808 2.304 1.56 0.576 0.752 0.864 1.68 0.864 2.784zM53.288 19.651c0-0.432-0.088-0.816-0.264-1.152-0.164-0.338-0.41-0.615-0.712-0.811l-0.008-0.005c-0.271-0.195-0.609-0.312-0.974-0.312-0.012 0-0.024 0-0.035 0l0.002-0h-5.088v4.488h4.92c0.4 0 0.76-0.096 1.080-0.288 0.336-0.208 0.6-0.48 0.792-0.816 0.181-0.312 0.288-0.686 0.288-1.085 0-0.007-0-0.013-0-0.020v0.001zM46.208 10.459v4.296h4.416c0.368 0 0.704-0.088 1.008-0.264s0.544-0.424 0.72-0.744c0.192-0.32 0.288-0.704 0.288-1.152 0-0.432-0.088-0.808-0.264-1.128-0.152-0.311-0.382-0.564-0.664-0.74l-0.008-0.004c-0.256-0.166-0.57-0.264-0.906-0.264-0.011 0-0.021 0-0.032 0l0.002-0h-4.56z"></path>
<path fill="#f4f4fd" d="M70.595 12.091c-0.184-0.165-0.388-0.316-0.606-0.446l-0.018-0.010c-0.309-0.202-0.665-0.388-1.039-0.537l-0.041-0.015c-0.375-0.163-0.831-0.319-1.3-0.441l-0.068-0.015c-0.453-0.137-0.973-0.216-1.512-0.216-0 0-0 0-0 0h0c-0.896 0-1.576 0.168-2.040 0.504-0.448 0.336-0.672 0.808-0.672 1.416 0 0.464 0.144 0.832 0.432 1.104s0.72 0.504 1.296 0.696c0.576 0.192 1.296 0.4 2.16 0.624 1.12 0.272 2.088 0.608 2.904 1.008 0.832 0.384 1.464 0.896 1.896 1.536 0.448 0.624 0.672 1.456 0.672 2.496 0 0.912-0.168 1.696-0.504 2.352-0.336 0.64-0.8 1.16-1.392 1.56s-1.264 0.696-2.016 0.888c-0.703 0.168-1.511 0.264-2.341 0.264-0.021 0-0.041-0-0.062-0h0.003c-0.901-0.001-1.78-0.097-2.626-0.279l0.082 0.015c-0.939-0.196-1.758-0.453-2.541-0.778l0.093 0.034c-0.827-0.355-1.537-0.756-2.196-1.224l0.036 0.024 1.464-2.856c0.144 0.144 0.4 0.336 0.768 0.576 0.368 0.224 0.816 0.456 1.344 0.696 0.528 0.224 1.104 0.416 1.728 0.576s1.256 0.24 1.896 0.24c0.896 0 1.576-0.152 2.040-0.456s0.696-0.736 0.696-1.296c0-0.512-0.184-0.912-0.552-1.2s-0.88-0.536-1.536-0.744c-0.424-0.162-1.2-0.408-1.983-0.635l-0.345-0.085c-1.072-0.304-1.968-0.64-2.688-1.008-0.72-0.384-1.256-0.864-1.608-1.44s-0.528-1.296-0.528-2.16c0-1.168 0.272-2.144 0.816-2.928 0.56-0.8 1.312-1.4 2.256-1.8 0.944-0.416 1.992-0.624 3.144-0.624 0.8 0 1.552 0.088 2.256 0.264 0.72 0.176 1.392 0.408 2.016 0.696s1.184 0.6 1.68 0.936l-1.464 2.688zM88.625 10.531h-5.448v14.136h-3.288v-14.136h-5.448v-2.904h14.185v2.904zM98.685 24.787c-1.36 0-2.52-0.224-3.48-0.672-0.929-0.452-1.702-1.094-2.292-1.88l-0.012-0.016c-0.558-0.774-0.995-1.678-1.259-2.654l-0.013-0.058c-0.259-0.946-0.408-2.032-0.408-3.152 0-0.014 0-0.028 0-0.042v0.002-8.688h3.312v8.688c0 0.704 0.064 1.392 0.192 2.064 0.144 0.656 0.376 1.248 0.696 1.776s0.744 0.944 1.272 1.248c0.528 0.304 1.184 0.456 1.968 0.456 0.8 0 1.464-0.152 1.992-0.456 0.544-0.32 0.968-0.744 1.272-1.272 0.32-0.528 0.552-1.12 0.696-1.776 0.137-0.612 0.216-1.315 0.216-2.037 0-0.001 0-0.002 0-0.004v0-8.688h3.288v8.688c0 1.168-0.144 2.264-0.432 3.288-0.272 1.039-0.727 1.945-1.333 2.729l0.013-0.017c-0.608 0.775-1.38 1.393-2.266 1.808l-0.038 0.016c-0.944 0.432-2.072 0.648-3.384 0.648zM110.181 24.667v-17.040h6.192c1.856 0 3.408 0.384 4.656 1.152 1.219 0.73 2.182 1.778 2.789 3.030l0.019 0.042c0.624 1.28 0.936 2.704 0.936 4.272 0 1.728-0.344 3.232-1.032 4.512-0.678 1.264-1.678 2.279-2.891 2.957l-0.037 0.019c-1.248 0.704-2.728 1.056-4.44 1.056h-6.192zM121.437 16.123c0-1.104-0.2-2.072-0.6-2.904-0.38-0.824-0.973-1.494-1.709-1.957l-0.019-0.011c-0.752-0.48-1.664-0.72-2.736-0.72h-2.88v11.232h2.88c1.088 0 2.008-0.24 2.76-0.72 0.752-0.496 1.32-1.168 1.704-2.016 0.4-0.864 0.6-1.832 0.6-2.904zM128.080 24.667v-17.040h3.312v17.040h-3.312zM142.94 24.787c-1.248 0-2.384-0.24-3.408-0.72-1.024-0.49-1.893-1.144-2.61-1.937l-0.006-0.007c-0.69-0.792-1.257-1.714-1.657-2.72l-0.023-0.064c-0.4-1.040-0.6-2.104-0.6-3.192 0-1.136 0.208-2.216 0.624-3.24 0.432-1.040 1.016-1.96 1.752-2.76 0.731-0.794 1.607-1.44 2.589-1.899l0.051-0.021c0.961-0.455 2.089-0.72 3.278-0.72 0.029 0 0.058 0 0.086 0l-0.004-0c1.232 0 2.352 0.248 3.36 0.744 1.029 0.498 1.899 1.168 2.608 1.982l0.008 0.010c0.72 0.832 1.28 1.76 1.68 2.784s0.6 2.080 0.6 3.168c0 1.12-0.208 2.2-0.624 3.24-0.438 1.066-1.029 1.98-1.757 2.766l0.005-0.006c-0.729 0.788-1.606 1.428-2.589 1.875l-0.051 0.021c-0.948 0.44-2.058 0.696-3.227 0.696-0.030 0-0.060-0-0.089-0l0.005 0zM137.996 16.147c0 0.736 0.112 1.448 0.336 2.136s0.544 1.304 0.96 1.848c0.432 0.528 0.952 0.952 1.56 1.272 0.596 0.288 1.295 0.457 2.034 0.457 0.027 0 0.055-0 0.082-0.001l-0.004 0c0.8 0 1.512-0.16 2.136-0.48 0.621-0.334 1.141-0.777 1.552-1.309l0.008-0.011c0.416-0.56 0.728-1.176 0.936-1.848 0.211-0.616 0.334-1.325 0.336-2.063v-0.001c0-0.736-0.12-1.44-0.36-2.112-0.226-0.701-0.562-1.307-0.992-1.834l0.008 0.010c-0.411-0.536-0.934-0.966-1.535-1.261l-0.025-0.011c-0.579-0.303-1.264-0.481-1.991-0.481-0.026 0-0.051 0-0.077 0.001l0.004-0c-0.816 0-1.536 0.168-2.16 0.504-0.608 0.32-1.12 0.752-1.536 1.296-0.401 0.521-0.727 1.126-0.947 1.78l-0.013 0.044c-0.198 0.615-0.312 1.323-0.312 2.058 0 0.002 0 0.004 0 0.007v-0z"></path>
</svg>
